<svg xmlns="http://www.w3.org/2000/svg" width="1400" height="340" viewBox="0 0 1400 340"><g fill="#061C24" transform="translate(268.6,204.0) scale(0.09173,-0.09173)"><path d="M606.9 944.5Q713.8 944.5 778.1 921.9Q842.4 899.3 871.2 864.3Q899.9 829.2 899.9 790.5Q899.9 754.6 882.7 727.3Q865.4 700.0 836.8 685.0Q808.2 670.0 773.9 670.0Q747.6 670.0 721.4 688.4Q695.2 706.8 669.1 733.8Q642.9 760.8 615.9 787.8Q588.9 814.7 561.1 833.1Q533.2 851.5 504.0 851.5Q459.2 851.5 421.4 824.1Q383.7 796.6 361.1 735.5Q338.5 674.4 338.5 573.3Q338.5 436.8 374.5 349.4Q410.5 261.9 477.7 220.0Q545.0 178.1 637.6 178.1Q706.6 178.1 762.9 198.5Q819.2 219.0 877.5 268.8L909.7 230.1Q845.1 137.6 780.3 81.2Q715.4 24.7 647.2 -0.9Q579.0 -26.5 503.9 -26.5Q369.0 -26.5 268.3 32.3Q167.7 91.1 112.0 195.4Q56.4 299.7 56.4 436.1Q56.4 543.3 95.3 635.9Q134.1 728.4 206.4 797.7Q278.7 867.0 380.2 905.7Q481.8 944.5 606.9 944.5Z" transform="translate(0.0,0)"/><path d="M765.5 935.9Q826.9 935.9 855.6 900.7Q884.4 865.6 884.4 814.1Q884.4 743.4 839.4 703.6Q794.4 663.9 736.6 663.9Q695.2 663.9 667.6 672.2Q640.1 680.6 615.1 688.8Q590.1 697.1 555.7 697.1Q530.9 697.1 508.0 691.2Q485.1 685.3 464.0 673.4Q443.0 661.4 422.4 642.4L406.6 692.5Q469.9 762.4 520.4 809.2Q570.9 856.1 613.2 883.9Q655.6 911.7 692.7 923.8Q729.9 935.9 765.5 935.9ZM466.1 741.0V86.7L600.2 37.1V0.0H48.5V37.1L165.3 83.2V691.5Q150.1 711.0 132.4 726.2Q114.6 741.5 91.7 757.7Q68.7 773.9 37.3 794.1V827.8L420.5 945.7H448.6Z" transform="translate(941.0,0)"/><path d="M527.9 944.5Q647.0 944.5 730.5 895.6Q814.0 846.7 861.4 754.8Q908.9 662.8 919.2 533.7H272.8L273.3 616.5L782.2 635.1L641.8 582.4Q637.2 678.7 620.9 739.3Q604.5 799.9 575.1 828.7Q545.6 857.5 501.0 857.5Q453.2 857.5 416.8 828.7Q380.4 799.9 360.0 731.2Q339.6 662.5 339.6 542.2Q339.6 420.1 377.4 339.3Q415.2 258.6 485.3 218.3Q555.5 178.1 652.4 178.1Q698.4 178.1 738.7 187.2Q779.0 196.2 817.9 216.8Q856.9 237.3 896.6 271.0L927.9 231.4Q868.1 146.9 804.3 89.4Q740.4 31.9 669.0 2.7Q597.6 -26.5 514.0 -26.5Q376.7 -26.5 273.9 33.1Q171.1 92.6 114.2 198.4Q57.3 304.1 57.3 442.8Q57.3 578.4 111.5 692.6Q165.7 806.7 270.8 875.6Q375.9 944.5 527.9 944.5Z" transform="translate(1835.0,0)"/><path d="M608.9 577.7 612.0 501.9Q528.0 478.8 475.6 454.8Q423.3 430.8 395.0 404.8Q366.8 378.8 356.4 349.0Q346.0 319.1 346.0 283.3Q346.0 213.8 375.3 182.2Q404.6 150.6 451.7 150.6Q484.1 150.6 509.5 166.8Q534.9 182.9 549.6 212.0Q564.2 241.0 564.2 279.7V691.3Q564.2 756.6 528.4 794.5Q492.7 832.4 416.4 832.4Q382.2 832.4 348.9 827.1Q315.5 821.8 289.7 811.8L326.5 877.0Q319.4 816.0 311.8 776.6Q304.3 737.2 295.8 713.9Q287.3 690.6 275.4 677.1Q259.3 657.6 229.3 645.2Q199.3 632.7 164.5 632.7Q118.2 632.7 94.1 649.5Q69.9 666.3 69.9 696.2Q69.9 739.3 110.5 782.9Q151.1 826.4 219.3 862.5Q287.5 898.6 372.3 920.5Q457.0 942.3 545.3 942.3Q666.5 942.3 736.5 906.1Q806.5 869.9 835.8 804.9Q865.0 740.0 865.0 653.1V186.9Q865.0 161.7 872.4 145.2Q879.7 128.8 893.9 120.8Q908.1 112.9 928.9 112.9Q950.0 112.9 973.2 119.5Q996.4 126.2 1020.8 140.6V81.7Q960.3 28.0 897.9 1.0Q835.5 -26.0 772.0 -26.0Q700.9 -26.0 657.3 0.9Q613.7 27.9 593.5 79.1Q573.3 130.3 571.0 202.4L582.1 201.5Q562.8 125.8 524.7 75.2Q486.7 24.7 434.4 -0.6Q382.1 -25.8 318.3 -25.8Q198.9 -25.8 128.0 36.0Q57.1 97.8 57.1 215.4Q57.1 272.6 79.3 319.3Q101.4 366.1 160.3 408.0Q219.1 449.9 327.8 491.0Q436.4 532.2 608.9 577.7Z" transform="translate(2809.0,0)"/><path d="M453.6 279.9Q453.6 221.8 493.7 190.8Q533.9 159.7 610.1 159.7Q650.0 159.7 696.8 167.7Q743.6 175.7 801.2 193.1V138.6Q720.6 77.8 656.6 41.9Q592.7 5.9 540.1 -9.9Q487.6 -25.7 440.2 -25.7Q354.7 -25.7 290.3 3.6Q225.9 32.8 189.8 94.3Q153.7 155.7 153.7 251.1V735.2L14.5 842.9V878.6Q37.7 893.3 72.7 914.5Q107.8 935.6 149.7 960.8Q191.5 986.0 235.8 1013.0Q280.0 1040.0 322.8 1066.0Q365.5 1092.0 401.7 1114.4H453.6V893.1ZM333.4 779.8V918.0H765.7L745.6 779.8Z" transform="translate(3820.0,0)"/><path d="M310.1 1115.4Q234.8 1115.4 188.9 1164.1Q143.1 1212.8 143.1 1282.8Q143.1 1351.3 188.9 1398.0Q234.8 1444.8 310.1 1444.8Q386.5 1444.8 431.6 1398.0Q476.7 1351.3 476.7 1282.8Q476.7 1212.8 431.6 1164.1Q386.5 1115.4 310.1 1115.4ZM474.6 945.7 466.7 737.1V82.6L581.8 37.1V0.0H49.1V37.1L165.9 83.2V702.9Q152.7 719.5 133.5 736.3Q114.3 753.2 90.3 771.0Q66.3 788.8 37.9 807.2V842.3L438.5 945.7Z" transform="translate(4615.0,0)"/><path d="M553.3 63.1Q607.9 63.1 646.3 98.4Q684.6 133.7 704.7 212.3Q724.8 291.0 724.8 420.6Q724.8 563.7 705.3 660.2Q685.8 756.6 645.9 805.6Q606.0 854.7 544.1 854.7Q489.9 854.7 451.4 819.4Q413.0 784.0 392.8 705.5Q372.5 627.0 372.5 497.4Q372.5 354.6 391.8 257.9Q411.1 161.1 451.3 112.1Q491.6 63.1 553.3 63.1ZM539.9 -26.5Q392.9 -26.5 284.3 33.6Q175.6 93.7 116.2 201.1Q56.8 308.4 56.8 449.0Q56.8 594.4 121.2 706.1Q185.6 817.8 298.6 881.1Q411.6 944.5 557.4 944.5Q706.1 944.5 814.4 884.5Q922.6 824.5 981.7 717.4Q1040.7 610.3 1040.7 469.0Q1040.7 324.0 975.9 212.0Q911.1 100.0 798.2 36.8Q685.2 -26.5 539.9 -26.5Z" transform="translate(5228.0,0)"/><path d="M77.0 560.5 39.2 575.9Q91.1 717.3 149.5 797.0Q208.0 876.8 276.5 909.6Q344.9 942.5 425.8 942.5Q460.6 942.5 487.8 940.3Q515.1 938.1 542.1 933.5Q569.0 928.8 601.6 921.1L460.0 445.1L451.9 455.9Q519.0 594.5 581.3 688.5Q643.7 782.4 703.2 838.4Q762.7 894.4 822.1 919.1Q881.4 943.7 942.4 943.7Q1046.9 943.7 1091.6 897.8Q1136.4 851.9 1136.4 782.4Q1136.4 745.8 1125.9 698.5Q1115.5 651.1 1087.6 581.2L890.3 77.7L838.7 142.5Q883.5 141.5 930.5 155.8Q977.5 170.1 1032.3 206.7Q1087.2 243.4 1153.4 308.2L1183.1 279.6Q1101.4 170.1 1024.4 102.7Q947.3 35.3 875.0 4.4Q802.6 -26.5 733.3 -26.5Q646.4 -26.5 618.6 6.4Q590.8 39.4 617.5 106.8L802.0 571.4Q823.2 624.3 831.2 649.8Q839.2 675.3 839.2 691.8Q839.2 715.9 825.1 729.5Q810.9 743.1 779.9 743.1Q741.7 743.1 697.3 712.8Q652.8 682.4 607.0 625.3Q561.2 568.3 519.7 487.8Q478.2 407.3 446.0 307.3L346.0 0.0H69.7L303.5 741.2Q303.6 749.5 300.0 754.8Q296.4 760.1 287.0 760.1Q253.6 760.1 222.3 745.8Q190.9 731.4 156.3 688.8Q121.8 646.3 77.0 560.5Z" transform="translate(6326.0,0)"/></g><g transform="rotate(-2 1061.2 128.1) translate(991.0,47.3) scale(0.16150)"><path d="M580.97,999.10C585.58,996.73 589.82,990.27 592.22,981.96C593.52,977.46 594.05,973.86 594.69,965.09C595.78,950.38 594.38,942.21 589.10,932.32C587.85,929.98 586.05,926.07 585.09,923.62C581.39,914.14 580.39,911.97 577.15,906.43C575.31,903.28 572.65,898.56 571.24,895.93C568.99,891.72 568.38,890.95 566.18,889.54C562.87,887.43 562.44,886.23 563.74,882.86C565.52,878.29 568.54,868.05 569.75,862.46C571.14,856.09 575.99,844.72 581.76,834.35C583.62,831.00 586.68,825.41 588.57,821.93C593.55,812.73 596.57,807.34 597.55,805.92C599.07,803.72 606.20,789.44 608.41,784.16C611.09,777.76 614.52,766.97 615.25,762.65C615.55,760.85 616.20,757.78 616.70,755.82C617.72,751.81 618.32,746.68 619.01,736.18C619.28,732.18 619.80,726.17 620.17,722.82C620.54,719.47 621.07,713.46 621.34,709.47C622.31,695.09 623.95,688.53 629.46,677.02C631.99,671.74 638.78,660.71 645.31,651.27C647.22,648.51 650.45,643.66 652.50,640.49C656.81,633.79 663.70,624.14 666.81,620.43C669.61,617.11 674.31,610.95 677.94,605.88C681.15,601.39 684.12,598.46 686.81,597.09C690.58,595.17 696.32,593.73 701.87,593.30C705.63,593.01 708.54,592.49 711.11,591.63C715.62,590.13 721.94,589.58 725.25,590.41C726.49,590.72 729.08,591.73 731.01,592.65C734.01,594.08 735.39,595.22 740.57,600.47C743.90,603.84 747.17,606.97 747.84,607.42C751.71,610.01 755.12,606.45 758.64,596.12C761.56,587.59 761.70,573.91 758.96,566.11C756.83,560.06 756.19,555.05 756.87,549.63C757.53,544.37 757.10,540.55 755.33,535.77C754.52,533.60 753.52,532.25 750.52,529.26C744.97,523.74 742.02,521.86 727.41,514.56C718.94,510.33 713.88,507.54 713.25,506.74C712.16,505.35 711.93,501.92 712.78,499.69C713.05,498.97 714.09,494.26 715.08,489.23C716.07,484.20 717.64,477.79 718.57,474.98C720.43,469.34 726.54,456.44 730.79,449.16C732.30,446.58 735.29,441.44 737.43,437.73C742.29,429.33 745.38,424.65 751.41,416.59C763.67,400.18 773.30,387.96 780.30,379.90C792.82,365.50 792.73,365.63 793.36,363.26C793.89,361.28 795.15,359.86 805.71,349.25C816.68,338.24 817.62,337.42 819.51,337.12C822.03,336.72 826.65,333.73 832.94,328.43C835.52,326.25 838.97,323.45 840.61,322.20C844.64,319.12 849.27,314.41 852.42,310.19C853.86,308.27 856.28,305.06 857.81,303.05C862.88,296.41 864.45,293.94 865.74,290.56C866.59,288.34 867.47,286.87 868.37,286.21L869.73,285.20L869.73,268.66C869.73,254.39 869.63,252.11 869.04,252.11C868.37,252.11 867.92,251.68 863.56,246.77C860.84,243.72 857.04,240.85 852.67,238.54C849.02,236.62 847.49,236.34 844.42,237.04C843.52,237.25 842.09,237.24 841.25,237.02C839.02,236.43 834.29,231.48 831.50,226.80C830.18,224.61 827.78,220.67 826.16,218.03C823.83,214.26 823.15,212.74 822.97,210.87C822.59,206.92 816.17,196.30 802.34,176.77C798.31,171.08 795.70,167.76 785.99,156.04C779.49,148.18 777.30,146.13 774.52,145.30C771.81,144.49 767.51,140.11 766.69,137.33C766.35,136.19 765.75,134.75 765.34,134.13C764.20,132.39 760.62,129.86 758.48,129.29C756.08,128.65 755.02,127.72 754.11,125.46C752.84,122.29 743.81,115.14 736.30,111.36C732.17,109.28 730.53,109.18 729.13,110.94C728.18,112.14 728.13,112.56 728.42,116.93C728.71,121.33 728.66,121.72 727.65,123.20C727.06,124.06 725.81,125.21 724.88,125.74C723.38,126.60 722.96,126.64 721.32,126.15C718.46,125.30 715.71,123.05 714.43,120.53C713.76,119.20 712.07,117.21 710.32,115.70C705.78,111.76 704.81,111.10 702.73,110.55C700.26,109.89 699.50,109.19 698.04,106.21C696.69,103.46 693.78,100.99 689.65,99.10C684.94,96.94 681.10,97.57 679.46,100.78C677.34,104.93 678.04,110.60 681.71,118.95C683.43,122.89 683.59,123.08 686.99,125.35C689.85,127.27 690.93,128.36 692.90,131.38C694.23,133.41 696.15,135.94 697.17,137.00C698.18,138.07 700.24,140.52 701.73,142.46C703.22,144.39 705.87,147.45 707.60,149.25C709.34,151.05 712.19,154.53 713.94,156.98C715.69,159.43 718.80,163.23 720.85,165.42C725.16,170.00 726.33,171.72 726.33,173.43C726.34,175.33 724.45,177.73 721.98,178.95C719.75,180.06 719.70,180.06 716.59,179.30C714.75,178.85 709.36,176.50 703.61,173.64C689.65,166.70 682.27,163.70 668.55,159.38C664.13,157.99 660.48,156.55 659.52,155.82C655.85,153.01 653.90,152.75 646.82,154.13C636.29,156.17 628.84,155.80 618.94,152.75C610.67,150.20 608.53,150.45 607.37,154.10C606.81,155.85 606.83,156.63 607.49,159.95C608.43,164.70 608.45,166.95 607.55,168.68C606.73,170.27 604.61,171.88 602.57,172.46C599.54,173.33 593.25,171.14 589.28,167.83C587.33,166.21 586.61,165.89 584.91,165.89C580.63,165.89 578.84,169.93 581.28,174.10C582.56,176.27 583.72,177.17 586.34,178.03C588.72,178.82 590.80,181.00 591.19,183.13C591.75,186.25 592.68,187.45 595.46,188.68C597.25,189.47 599.44,191.15 602.43,194.04C607.85,199.28 609.75,200.20 615.53,200.38C617.86,200.45 620.39,200.75 621.15,201.04C624.70,202.39 627.61,205.88 628.18,209.47C628.66,212.56 629.33,213.57 633.47,217.53C637.73,221.60 638.95,222.11 644.42,222.12C649.24,222.12 652.32,222.84 654.60,224.49C658.42,227.25 658.70,229.94 655.55,233.51C651.26,238.39 647.51,238.14 632.38,231.96C624.55,228.76 618.31,226.80 615.96,226.80C613.79,226.80 608.23,228.13 606.96,228.95C605.00,230.22 603.39,234.16 603.36,237.82C603.30,243.95 605.82,247.80 610.54,248.79C613.40,249.38 616.34,251.35 619.59,254.82C624.18,259.73 624.27,261.96 620.04,266.12C617.20,268.93 611.12,272.43 608.13,272.98C604.87,273.58 602.63,277.32 602.63,282.19C602.62,285.26 603.18,286.45 606.63,290.67C609.94,294.72 610.26,295.86 608.74,298.36C607.43,300.49 601.14,305.58 598.36,306.75C593.66,308.72 590.48,313.55 588.18,322.18C587.42,325.01 586.26,328.58 585.59,330.13C584.20,333.34 584.06,335.70 585.06,338.99C585.90,341.78 585.93,343.47 585.19,346.01C584.41,348.67 580.28,352.64 575.90,354.94C573.97,355.95 569.76,358.56 566.54,360.75C563.32,362.94 559.21,365.40 557.40,366.23C553.99,367.79 551.88,369.91 545.84,377.86C542.84,381.80 537.64,388.54 535.44,391.32C533.13,394.25 532.77,396.65 534.17,399.87C536.00,404.12 535.27,406.54 530.08,413.31C528.99,414.73 527.02,417.99 525.71,420.57C522.84,426.19 521.49,428.07 519.68,429.01C517.13,430.32 514.58,429.56 511.41,426.51C507.55,422.82 498.44,412.56 494.78,407.79C492.66,405.02 488.81,400.04 486.23,396.72C481.73,390.92 477.06,384.52 468.70,372.66C457.68,357.02 448.73,344.58 444.47,338.96C435.27,326.84 432.25,323.14 430.98,322.45C428.25,320.97 426.94,319.57 426.62,317.80C426.23,315.64 425.89,314.95 423.28,311.04C422.09,309.27 420.42,307.44 419.47,306.87C416.70,305.22 415.68,304.08 415.36,302.29C415.20,301.37 414.85,300.19 414.59,299.67C413.86,298.22 403.62,284.55 400.90,281.40C397.58,277.55 386.16,263.22 381.85,257.50C379.91,254.92 375.38,248.91 371.78,244.14C360.91,229.75 359.32,227.62 355.90,222.88C354.10,220.37 349.52,214.27 345.74,209.32C339.95,201.76 338.41,200.06 336.13,198.64C333.64,197.10 333.33,196.72 332.39,194.02C331.09,190.28 329.59,188.72 325.24,186.58C321.85,184.91 321.71,184.77 319.85,181.24C318.40,178.49 317.16,176.93 314.67,174.74C306.43,167.48 295.24,160.11 275.07,148.63C272.11,146.95 267.04,143.84 263.81,141.73C256.70,137.09 255.65,136.53 253.26,136.13C250.11,135.59 249.88,135.45 248.41,133.16C246.83,130.70 244.43,129.11 241.57,128.63C238.36,128.09 238.09,127.93 236.81,125.75C235.51,123.52 232.12,121.08 221.65,114.80C218.94,113.17 213.67,109.81 209.93,107.33C206.20,104.85 201.35,101.79 199.16,100.52C196.97,99.26 194.01,97.46 192.60,96.52C191.18,95.58 186.21,92.64 181.55,90.00C176.89,87.35 170.46,83.32 167.25,81.05C159.68,75.67 155.91,73.13 135.57,59.61C121.10,50.00 118.21,48.26 115.97,47.79C113.77,47.34 112.79,46.76 110.07,44.36C102.39,37.57 101.54,37.19 101.03,40.36C100.41,44.23 96.97,46.31 93.40,44.95C90.86,43.99 79.34,36.36 71.46,30.42C51.70,15.53 50.94,14.89 49.20,11.96C47.87,9.71 46.56,8.45 42.19,5.18C35.77,0.39 35.20,0.04 33.91,0.02C32.41,-0.01 31.68,1.23 31.72,3.76C31.76,6.53 33.31,9.92 35.05,11.06C35.75,11.52 39.27,14.87 42.88,18.52C46.49,22.17 51.65,26.81 54.36,28.83C57.06,30.86 60.60,33.62 62.21,34.98C63.83,36.34 67.73,39.20 70.88,41.33C77.27,45.65 83.63,51.54 84.15,53.62C84.59,55.37 83.30,57.81 81.28,59.06C78.85,60.56 76.54,60.23 67.54,57.11C63.00,55.53 57.38,53.64 55.06,52.91C52.74,52.18 48.95,50.95 46.63,50.19C44.31,49.43 38.89,47.96 34.59,46.93C28.21,45.39 26.33,44.74 24.40,43.41C21.82,41.64 19.02,40.87 13.54,40.45C10.31,40.20 9.87,40.27 8.97,41.17C7.37,42.77 7.60,45.76 9.53,48.57C11.56,51.51 22.01,58.67 25.54,59.53C27.56,60.03 28.46,60.69 32.11,64.38C35.49,67.78 36.56,69.21 37.39,71.39C38.49,74.29 38.72,77.42 37.97,79.39C37.20,81.42 33.79,84.72 31.60,85.56C29.06,86.53 27.34,86.23 24.62,84.36C21.56,82.25 9.75,79.67 3.16,79.66L0.00,79.66L-0.00,85.24C-0.00,90.82 -0.00,90.82 1.30,91.27C2.02,91.52 3.76,92.77 5.17,94.05C8.38,96.96 14.00,100.57 19.31,103.11C22.56,104.67 24.01,105.09 26.47,105.21C30.45,105.41 32.62,106.67 37.65,111.69C41.90,115.93 46.10,121.73 47.33,125.06C48.00,126.89 48.92,127.87 53.23,131.34C60.84,137.46 61.39,137.79 64.50,138.10C67.63,138.41 69.38,139.20 74.74,142.73C79.75,146.03 83.50,150.02 87.76,156.55C91.93,162.96 92.56,164.16 92.99,166.55C93.40,168.79 96.98,172.48 100.71,174.50C102.87,175.67 103.52,175.80 105.67,175.55C107.86,175.29 108.48,175.44 111.35,176.90C114.94,178.72 123.70,185.58 128.40,190.25C134.12,195.94 135.57,199.26 134.56,204.40C133.77,208.48 134.52,211.13 139.16,220.59C143.02,228.46 144.35,230.08 146.95,230.08C148.43,230.09 151.56,232.57 152.45,234.44C152.88,235.34 153.24,236.79 153.24,237.65C153.25,238.53 153.89,240.35 154.71,241.80C155.52,243.22 156.79,245.48 157.55,246.83C159.10,249.62 160.40,250.70 162.14,250.70C162.80,250.70 166.38,249.65 170.10,248.36C173.82,247.07 177.41,246.02 178.08,246.02C179.63,246.02 183.03,248.17 184.97,250.39C187.76,253.57 188.00,254.45 188.13,261.91C188.23,267.25 188.47,269.49 189.25,272.14C189.89,274.31 190.25,276.84 190.26,279.16C190.26,284.93 191.99,288.03 201.01,298.40C203.98,301.82 207.74,306.25 209.35,308.24C211.44,310.82 213.01,312.24 214.82,313.20C217.05,314.38 217.50,314.86 218.41,317.11C219.25,319.18 219.77,319.81 221.14,320.39C225.61,322.28 226.72,322.90 228.62,324.55C231.56,327.09 232.01,328.41 231.10,331.82C230.40,334.43 230.41,334.76 231.42,338.95C232.73,344.36 235.80,350.11 241.12,357.08C245.52,362.85 246.64,365.27 247.41,370.65C248.45,377.95 253.46,389.24 258.06,394.62C265.46,403.29 267.79,406.17 269.88,409.21C271.17,411.08 273.38,413.98 274.80,415.65C276.43,417.56 278.47,420.88 280.28,424.55C281.87,427.78 284.06,431.99 285.14,433.93C286.22,435.86 288.86,440.82 291.00,444.94C293.14,449.06 295.77,453.91 296.85,455.72C297.93,457.52 300.04,461.11 301.54,463.68C305.22,470.01 308.52,475.30 311.67,479.96C313.12,482.09 315.52,485.94 317.02,488.52C319.23,492.35 320.76,494.23 325.40,498.83C330.62,504.00 331.31,504.90 334.04,510.04C337.48,516.53 338.79,518.37 340.90,519.67C343.92,521.54 350.42,520.41 354.50,517.31C357.68,514.90 359.19,514.39 360.76,515.20C362.50,516.09 363.04,517.54 363.67,522.96C364.33,528.65 366.80,536.33 370.07,542.85C374.96,552.61 378.59,557.15 383.46,559.56C390.40,563.00 392.23,565.07 400.18,578.49C405.66,587.75 409.08,589.52 416.50,586.93C420.39,585.56 421.30,585.50 423.15,586.46C426.38,588.13 428.22,592.86 426.90,596.07C426.20,597.74 417.52,605.86 413.51,608.57C411.98,609.61 409.36,611.15 407.69,612.00C406.01,612.84 403.48,614.32 402.06,615.28C398.79,617.51 391.20,625.34 389.96,627.77C388.62,630.39 387.64,634.47 387.05,639.89C386.77,642.46 386.14,646.25 385.65,648.31C385.16,650.37 384.53,654.03 384.26,656.43C383.52,663.04 382.78,664.12 374.86,670.21C372.66,671.90 368.64,675.37 365.93,677.92C362.32,681.32 359.25,683.63 354.47,686.57C345.61,692.02 340.15,695.07 335.21,697.31C332.93,698.34 328.22,700.64 324.74,702.42C321.16,704.25 315.16,706.77 310.92,708.23C303.88,710.64 297.52,712.95 288.19,716.49C286.00,717.33 280.83,719.22 276.71,720.70C258.04,727.42 244.21,732.60 236.71,735.68C232.23,737.51 226.01,739.99 222.89,741.18C219.76,742.36 215.30,744.17 212.98,745.19C210.66,746.21 206.50,747.97 203.73,749.10C200.96,750.23 196.95,752.04 194.82,753.12C192.70,754.20 186.22,757.21 180.43,759.81C171.30,763.90 169.75,764.74 168.80,766.17C166.64,769.37 168.38,772.06 174.57,775.13C177.95,776.81 178.85,777.04 183.47,777.41C186.99,777.69 189.70,778.21 192.05,779.05C194.86,780.06 196.79,780.36 202.60,780.69C211.03,781.17 214.15,781.72 217.78,783.38C220.07,784.43 221.22,784.63 225.40,784.73C229.35,784.81 230.93,785.07 233.43,786.02C235.15,786.67 238.31,787.66 240.46,788.20C242.61,788.75 246.03,789.94 248.06,790.85C252.43,792.81 253.40,792.88 260.86,791.76C266.49,790.91 266.63,790.91 271.40,791.85C274.07,792.37 278.23,792.91 280.65,793.05C284.64,793.27 285.47,793.16 289.42,791.90C291.81,791.13 296.47,789.09 299.77,787.37C307.80,783.17 309.41,783.13 316.29,787.03C318.33,788.19 318.50,788.21 325.19,787.92C330.00,787.71 333.29,787.30 336.39,786.51C340.34,785.51 341.10,785.46 343.90,785.94C347.74,786.59 349.10,786.28 351.40,784.20C353.55,782.26 354.37,782.18 356.41,783.74C358.52,785.34 359.67,785.22 363.34,783.01C367.77,780.33 370.15,779.61 384.20,776.67C386.11,776.27 388.70,775.54 389.96,775.04C392.98,773.85 394.24,773.90 395.83,775.26C397.69,776.87 397.58,779.86 395.38,787.04C392.94,795.00 390.50,805.09 389.90,809.75C389.61,811.94 388.76,815.84 388.00,818.42C387.25,820.99 386.40,824.89 386.12,827.09C385.83,829.28 385.00,834.65 384.26,839.03C383.30,844.75 382.83,849.52 382.61,855.90C382.32,863.92 382.39,865.42 383.35,870.90C384.11,875.32 384.43,879.12 384.49,884.72C384.58,893.34 384.82,894.26 387.76,896.84C390.79,899.50 394.77,898.41 397.21,894.26C398.27,892.44 398.40,891.81 398.17,889.54C397.83,886.25 398.49,884.58 401.04,882.28C404.08,879.53 406.91,879.36 410.06,881.72C413.50,884.30 414.97,884.14 416.57,881.02C419.44,875.38 425.67,875.24 428.27,880.76C429.76,883.94 429.74,886.39 428.19,889.45C426.03,893.76 424.85,904.90 424.85,921.04C424.85,933.09 424.93,934.46 425.87,937.87C427.58,944.04 431.13,948.80 434.88,949.92C436.49,950.40 436.95,950.32 439.80,948.98C445.90,946.13 446.81,946.70 453.81,957.88C456.06,961.46 461.37,967.13 464.28,969.06C467.62,971.27 470.68,970.91 472.11,968.14C473.20,966.05 472.97,963.69 471.20,958.54C470.31,955.96 469.15,951.84 468.61,949.39C468.08,946.94 466.71,942.09 465.58,938.61C463.03,930.77 462.73,929.19 463.48,927.77C464.23,926.33 464.81,925.98 466.37,925.97C467.38,925.96 468.65,926.95 472.23,930.55C474.75,933.07 478.60,936.39 480.79,937.93C484.58,940.59 484.87,940.92 486.88,944.89C489.30,949.66 490.36,950.64 492.19,949.81C494.32,948.84 495.08,946.49 495.05,940.96C495.02,936.70 494.81,935.44 493.51,931.64C490.91,924.01 485.30,914.01 480.78,908.93C479.66,907.68 475.89,904.21 472.39,901.21C468.89,898.21 464.72,894.55 463.13,893.07C461.53,891.59 459.26,889.92 458.08,889.37C454.52,887.70 449.06,880.77 448.60,877.34C448.32,875.26 449.16,873.26 451.40,870.69C453.28,868.53 455.12,864.30 455.19,862.00C455.23,860.83 454.73,858.97 453.89,857.09C451.38,851.50 451.41,849.57 454.10,843.44C454.86,841.71 455.71,838.64 455.99,836.62C456.68,831.64 460.22,819.51 462.58,814.01C465.97,806.10 467.63,795.44 467.66,781.40C467.68,768.76 467.38,768.97 485.71,768.50C498.31,768.18 498.38,768.17 503.02,766.65C509.93,764.39 512.46,764.92 514.58,769.08C516.30,772.46 515.40,776.93 511.81,782.88C510.73,784.67 509.21,788.00 508.45,790.27C506.99,794.58 505.15,805.96 505.15,810.69C505.15,812.26 504.50,815.61 503.53,819.07C501.58,825.95 500.95,830.24 501.46,832.98C501.67,834.09 502.93,837.09 504.27,839.65C507.12,845.13 507.33,847.20 505.62,852.81C504.74,855.67 504.60,856.92 504.83,860.10C505.22,865.64 505.92,867.90 508.05,870.47C510.57,873.53 511.25,874.95 511.25,877.24C511.25,880.09 509.53,886.31 507.85,889.59C506.49,892.23 506.38,892.83 506.36,897.14C506.34,901.05 506.51,902.14 507.34,903.70C510.96,910.48 517.62,910.86 527.73,904.86C532.11,902.26 534.39,901.96 536.47,903.71C538.78,905.65 539.53,907.47 539.57,911.20C539.62,916.56 537.64,919.17 529.07,925.04C518.92,931.99 512.32,941.21 510.69,950.73C510.00,954.77 510.62,960.06 512.28,964.25C513.26,966.71 513.49,966.96 514.76,966.96C516.04,966.96 516.26,966.71 517.27,964.15C519.30,958.97 519.51,958.81 529.86,953.99C532.45,952.78 535.89,949.66 539.86,944.90C544.97,938.79 548.80,937.60 551.93,941.17C553.51,942.96 553.71,943.72 554.14,949.55C554.31,951.83 554.84,955.60 555.32,957.93C556.72,964.79 558.48,965.74 564.26,962.75C566.00,961.84 567.94,961.11 568.56,961.11C570.13,961.11 572.01,962.70 572.56,964.51C573.48,967.52 573.66,980.23 572.86,985.50C571.20,996.36 574.75,1002.31 580.97,999.10Z" fill="#061C24"/></g></svg>